<?xml version="1.0" encoding="UTF-8" standalone="no"?>
<!DOCTYPE svg PUBLIC "-//W3C//DTD SVG 1.1//EN" "http://www.w3.org/Graphics/SVG/1.1/DTD/svg11.dtd">
<svg width="100%" height="100%" viewBox="0 0 134 34" version="1.1" xmlns="http://www.w3.org/2000/svg" xmlns:xlink="http://www.w3.org/1999/xlink" xml:space="preserve" xmlns:serif="http://www.serif.com/" style="fill-rule:evenodd;clip-rule:evenodd;">
    <g id="Rectangle" transform="matrix(0.99405,0,0,0.982082,0.475637,0.236002)">
        <path d="M133.75,8.396C133.75,3.9 130.144,0.25 125.702,0.25L8.298,0.25C3.856,0.25 0.25,3.9 0.25,8.396L0.25,25.604C0.25,30.1 3.856,33.75 8.298,33.75L125.702,33.75C130.144,33.75 133.75,30.1 133.75,25.604L133.75,8.396Z" style="fill:white;stroke:rgb(154,160,166);stroke-width:0.5px;"/>
    </g>
    <g id="XMLID_417_" transform="matrix(0.788235,0,0,0.788235,8.23513,7.14706)">
        <g transform="matrix(1,0,0,1,-1.47341,-0.0366939)">
            <path d="M34.654,7.537L30.877,7.537L30.877,1.482L31.817,1.482L31.817,6.673L34.654,6.673L34.654,7.537Z" style="fill-rule:nonzero;"/>
        </g>
        <g transform="matrix(1,0,0,1,-1.47341,-0.0366939)">
            <path d="M35.743,1.616C35.743,1.302 35.991,1.062 36.326,1.062C36.662,1.062 36.91,1.302 36.91,1.616C36.91,1.927 36.662,2.166 36.326,2.166C35.991,2.166 35.743,1.927 35.743,1.616ZM35.877,2.968L36.775,2.968L36.775,7.537L35.877,7.537L35.877,2.968Z" style="fill-rule:nonzero;"/>
        </g>
        <g transform="matrix(1,0,0,1,-1.47341,-0.0366939)">
            <path d="M39.897,2.88C40.925,2.88 41.597,3.358 41.685,4.164L40.821,4.164C40.737,3.828 40.41,3.614 39.897,3.614C39.394,3.614 39.012,3.853 39.012,4.21C39.012,4.482 39.243,4.654 39.738,4.767L40.498,4.944C41.366,5.145 41.773,5.518 41.773,6.19C41.773,7.051 40.971,7.625 39.88,7.625C38.793,7.625 38.084,7.135 38.005,6.324L38.907,6.324C39.02,6.677 39.356,6.895 39.902,6.895C40.464,6.895 40.863,6.643 40.863,6.278C40.863,6.006 40.649,5.829 40.191,5.721L39.394,5.536C38.525,5.33 38.122,4.939 38.122,4.26C38.123,3.45 38.865,2.88 39.897,2.88Z" style="fill-rule:nonzero;"/>
        </g>
        <g transform="matrix(1,0,0,1,-1.47341,-0.0366939)">
            <path d="M44.171,1.831L44.171,2.988L45.162,2.988L45.162,3.748L44.171,3.748L44.171,6.097C44.171,6.576 44.369,6.786 44.817,6.786C44.956,6.786 45.036,6.778 45.162,6.765L45.162,7.516C45.014,7.542 44.846,7.562 44.67,7.562C43.667,7.562 43.269,7.21 43.269,6.329L43.269,3.748L42.543,3.748L42.543,2.988L43.269,2.988L43.269,1.831L44.171,1.831Z" style="fill-rule:nonzero;"/>
        </g>
        <g transform="matrix(1,0,0,1,-1.47341,-0.0366939)">
            <path d="M50.161,6.303C49.955,7.122 49.226,7.625 48.181,7.625C46.871,7.625 46.07,6.727 46.07,5.267C46.07,3.806 46.888,2.88 48.176,2.88C49.448,2.88 50.216,3.748 50.216,5.183L50.216,5.498L46.989,5.498L46.989,5.549C47.018,6.349 47.484,6.857 48.205,6.857C48.751,6.857 49.124,6.66 49.292,6.304L50.161,6.304L50.161,6.303ZM46.989,4.831L49.297,4.831C49.276,4.113 48.839,3.647 48.172,3.647C47.505,3.647 47.039,4.117 46.989,4.831Z" style="fill-rule:nonzero;"/>
        </g>
        <g transform="matrix(1,0,0,1,-1.47341,-0.0366939)">
            <path d="M51.421,2.968L52.29,2.968L52.29,3.693L52.358,3.693C52.58,3.185 53.033,2.88 53.721,2.88C54.741,2.88 55.303,3.492 55.303,4.579L55.303,7.537L54.401,7.537L54.401,4.805C54.401,4.071 54.082,3.706 53.415,3.706C52.748,3.706 52.324,4.151 52.324,4.864L52.324,7.537L51.421,7.537L51.421,2.968L51.421,2.968Z" style="fill-rule:nonzero;"/>
        </g>
        <g transform="matrix(1,0,0,1,-1.47341,-0.0366939)">
            <path d="M58.943,5.25C58.943,3.777 59.765,2.88 61.1,2.88C62.43,2.88 63.252,3.777 63.252,5.25C63.252,6.731 62.434,7.625 61.1,7.625C59.761,7.625 58.943,6.731 58.943,5.25ZM62.326,5.25C62.326,4.26 61.88,3.68 61.1,3.68C60.315,3.68 59.874,4.26 59.874,5.25C59.874,6.249 60.315,6.824 61.1,6.824C61.88,6.824 62.326,6.245 62.326,5.25Z" style="fill-rule:nonzero;"/>
        </g>
        <g transform="matrix(1,0,0,1,-1.47341,-0.0366939)">
            <path d="M64.458,2.968L65.328,2.968L65.328,3.693L65.395,3.693C65.617,3.185 66.07,2.88 66.758,2.88C67.778,2.88 68.34,3.492 68.34,4.579L68.34,7.537L67.438,7.537L67.438,4.805C67.438,4.071 67.12,3.706 66.452,3.706C65.785,3.706 65.361,4.151 65.361,4.864L65.361,7.537L64.459,7.537L64.459,2.968L64.458,2.968Z" style="fill-rule:nonzero;"/>
        </g>
    </g>
    <g id="XMLID_415_" transform="matrix(0.788235,0,0,0.788235,8.23513,7.14706)">
        <g transform="matrix(1,0,0,1,-1.47341,-0.0366939)">
            <path d="M38.193,20.403L33.459,20.403L32.323,23.76L30.318,23.76L34.801,11.342L36.884,11.342L41.368,23.76L39.329,23.76L38.193,20.403ZM33.95,18.854L37.702,18.854L35.852,13.407L35.8,13.407L33.95,18.854Z" style="fill-rule:nonzero;"/>
        </g>
        <g transform="matrix(1,0,0,1,-1.47341,-0.0366939)">
            <path d="M51.05,19.233C51.05,22.047 49.544,23.854 47.272,23.854C45.982,23.854 44.957,23.277 44.423,22.27L44.38,22.27L44.38,26.755L42.522,26.755L42.522,14.706L44.321,14.706L44.321,16.212L44.355,16.212C44.871,15.24 45.973,14.611 47.238,14.611C49.536,14.611 51.05,16.427 51.05,19.233ZM49.14,19.233C49.14,17.4 48.193,16.195 46.747,16.195C45.328,16.195 44.372,17.426 44.372,19.233C44.372,21.057 45.328,22.279 46.747,22.279C48.193,22.279 49.14,21.083 49.14,19.233Z" style="fill-rule:nonzero;"/>
        </g>
        <g transform="matrix(1,0,0,1,-1.47341,-0.0366939)">
            <path d="M61.015,19.233C61.015,22.047 59.509,23.854 57.237,23.854C55.947,23.854 54.922,23.277 54.388,22.27L54.345,22.27L54.345,26.755L52.487,26.755L52.487,14.706L54.286,14.706L54.286,16.212L54.32,16.212C54.836,15.24 55.938,14.611 57.203,14.611C59.5,14.611 61.015,16.427 61.015,19.233ZM59.105,19.233C59.105,17.4 58.158,16.195 56.712,16.195C55.292,16.195 54.337,17.426 54.337,19.233C54.337,21.057 55.292,22.279 56.712,22.279C58.158,22.279 59.105,21.083 59.105,19.233Z" style="fill-rule:nonzero;"/>
        </g>
        <g transform="matrix(1,0,0,1,-1.47341,-0.0366939)">
            <rect x="62.52" y="11.342" width="1.859" height="12.418" style="fill-rule:nonzero;"/>
        </g>
        <g transform="matrix(1,0,0,1,-1.47341,-0.0366939)">
            <path d="M74.055,21.1C73.805,22.744 72.205,23.872 70.157,23.872C67.523,23.872 65.888,22.107 65.888,19.276C65.888,16.436 67.532,14.595 70.078,14.595C72.583,14.595 74.159,16.315 74.159,19.06L74.159,19.697L67.764,19.697L67.764,19.809C67.764,21.358 68.737,22.374 70.2,22.374C71.232,22.374 72.041,21.884 72.29,21.101L74.055,21.101L74.055,21.1ZM67.773,18.398L72.299,18.398C72.256,17.013 71.37,16.1 70.079,16.1C68.796,16.1 67.868,17.03 67.773,18.398Z" style="fill-rule:nonzero;"/>
        </g>
        <g transform="matrix(1,0,0,1,-1.47341,-0.0366939)">
            <path d="M84.057,11.342C86.466,11.342 88.145,13.003 88.145,15.421C88.145,17.848 86.432,19.516 83.997,19.516L81.329,19.516L81.329,23.76L79.401,23.76L79.401,11.342L84.057,11.342ZM81.329,17.899L83.54,17.899C85.218,17.899 86.173,16.995 86.173,15.43C86.173,13.863 85.218,12.968 83.549,12.968L81.329,12.968L81.329,17.899Z" style="fill-rule:nonzero;"/>
        </g>
        <g transform="matrix(1,0,0,1,-1.47341,-0.0366939)">
            <path d="M88.824,19.233C88.824,16.385 90.501,14.595 93.118,14.595C95.743,14.595 97.412,16.385 97.412,19.233C97.412,22.09 95.751,23.872 93.118,23.872C90.485,23.872 88.824,22.09 88.824,19.233ZM95.519,19.233C95.519,17.279 94.624,16.126 93.118,16.126C91.612,16.126 90.716,17.288 90.716,19.233C90.716,21.195 91.612,22.34 93.118,22.34C94.624,22.34 95.519,21.195 95.519,19.233Z" style="fill-rule:nonzero;"/>
        </g>
        <g transform="matrix(1,0,0,1,-1.47341,-0.0366939)">
            <path d="M98.717,19.233C98.717,16.436 100.257,14.611 102.503,14.611C103.803,14.611 104.828,15.214 105.343,16.212L105.378,16.212L105.378,11.342L107.246,11.342L107.246,23.76L105.438,23.76L105.438,22.22L105.404,22.22C104.871,23.252 103.837,23.854 102.521,23.854C100.257,23.854 98.717,22.03 98.717,19.233ZM100.619,19.233C100.619,21.092 101.566,22.279 103.011,22.279C104.44,22.279 105.395,21.074 105.395,19.233C105.395,17.408 104.44,16.195 103.011,16.195C101.566,16.195 100.619,17.391 100.619,19.233Z" style="fill-rule:nonzero;"/>
        </g>
        <g transform="matrix(1,0,0,1,-1.47341,-0.0366939)">
            <path d="M115.154,17.821C114.991,16.866 114.242,16.152 113.02,16.152C111.591,16.152 110.644,17.349 110.644,19.233C110.644,21.161 111.6,22.322 113.037,22.322C114.19,22.322 114.948,21.746 115.154,20.696L116.944,20.696C116.738,22.598 115.214,23.872 113.02,23.872C110.438,23.872 108.751,22.107 108.751,19.233C108.751,16.419 110.438,14.595 113.002,14.595C115.326,14.595 116.772,16.057 116.927,17.821L115.154,17.821L115.154,17.821Z" style="fill-rule:nonzero;"/>
        </g>
        <g transform="matrix(1,0,0,1,-1.47341,-0.0366939)">
            <path d="M118.082,21.186C118.082,19.603 119.295,18.647 121.447,18.518L123.925,18.381L123.925,17.692C123.925,16.685 123.263,16.117 122.136,16.117C121.103,16.117 120.38,16.608 120.234,17.391L118.496,17.391C118.547,15.756 120.07,14.594 122.187,14.594C124.347,14.594 125.776,15.773 125.776,17.554L125.776,23.76L123.995,23.76L123.995,22.27L123.952,22.27C123.426,23.277 122.282,23.915 121.094,23.915C119.322,23.915 118.082,22.813 118.082,21.186ZM123.925,20.369L123.925,19.672L121.697,19.809C120.586,19.879 119.958,20.36 119.958,21.135C119.958,21.927 120.613,22.443 121.611,22.443C122.911,22.443 123.925,21.548 123.925,20.369Z" style="fill-rule:nonzero;"/>
        </g>
        <g transform="matrix(1,0,0,1,-1.47341,-0.0366939)">
            <path d="M130.963,14.603C132.969,14.603 134.406,15.713 134.449,17.313L132.702,17.313C132.625,16.514 131.945,16.023 130.912,16.023C129.905,16.023 129.234,16.487 129.234,17.193C129.234,17.735 129.681,18.097 130.62,18.329L132.143,18.682C133.967,19.121 134.656,19.792 134.656,21.118C134.656,22.753 133.107,23.872 130.895,23.872C128.76,23.872 127.324,22.778 127.186,21.126L129.027,21.126C129.157,21.995 129.853,22.46 130.981,22.46C132.091,22.46 132.789,22.004 132.789,21.281C132.789,20.721 132.444,20.421 131.498,20.179L129.879,19.784C128.244,19.387 127.417,18.553 127.417,17.297C127.417,15.696 128.855,14.603 130.963,14.603Z" style="fill-rule:nonzero;"/>
        </g>
        <g transform="matrix(1,0,0,1,-1.47341,-0.0366939)">
            <path d="M138.694,12.563L138.694,14.706L140.416,14.706L140.416,16.178L138.694,16.178L138.694,21.169C138.694,21.944 139.039,22.305 139.795,22.305C139.985,22.305 140.287,22.279 140.407,22.263L140.407,23.725C140.201,23.777 139.788,23.811 139.375,23.811C137.542,23.811 136.827,23.123 136.827,21.367L136.827,16.177L135.51,16.177L135.51,14.706L136.827,14.706L136.827,12.563L138.694,12.563L138.694,12.563Z" style="fill-rule:nonzero;"/>
        </g>
        <g transform="matrix(1,0,0,1,-1.47341,-0.0366939)">
            <path d="M145.413,14.603C147.418,14.603 148.855,15.713 148.898,17.313L147.151,17.313C147.074,16.514 146.394,16.023 145.361,16.023C144.354,16.023 143.683,16.487 143.683,17.193C143.683,17.735 144.13,18.097 145.069,18.329L146.592,18.682C148.416,19.121 149.105,19.792 149.105,21.118C149.105,22.753 147.556,23.872 145.344,23.872C143.209,23.872 141.773,22.778 141.635,21.126L143.476,21.126C143.606,21.995 144.302,22.46 145.43,22.46C146.541,22.46 147.238,22.004 147.238,21.281C147.238,20.721 146.893,20.421 145.947,20.179L144.329,19.784C142.693,19.387 141.867,18.553 141.867,17.297C141.867,15.696 143.304,14.603 145.413,14.603Z" style="fill-rule:nonzero;"/>
        </g>
    </g>
    <g id="XMLID_1370_" transform="matrix(0.788235,0,0,0.788235,8.23513,3.20588)">
        <g id="XMLID_1400_" transform="matrix(1,0,0,1,-1.47341,4.96331)">
            <path d="M24.665,21.81C24.421,22.431 23.856,23.306 23.056,23.922C22.594,24.278 22.042,24.618 21.284,24.843C20.476,25.082 19.481,25.163 18.243,25.163L6.92,25.163C5.682,25.163 4.687,25.082 3.879,24.843C3.121,24.618 2.569,24.278 2.107,23.922C1.307,23.306 0.742,22.431 0.498,21.81C0.005,20.558 0,19.138 0,18.243L0,6.92C0,6.025 0.005,4.605 0.498,3.353C0.742,2.732 1.307,1.857 2.107,1.241C2.569,0.885 3.121,0.545 3.879,0.32C4.687,0.081 5.682,0 6.92,0L18.243,0C19.482,0 20.477,0.081 21.284,0.32C22.042,0.545 22.594,0.885 23.056,1.241C23.856,1.857 24.421,2.732 24.665,3.353C25.158,4.605 25.163,6.025 25.163,6.92L25.163,18.243C25.163,19.138 25.158,20.558 24.665,21.81Z" style="fill:url(#_Linear1);"/>
        </g>
        <g id="XMLID_1398_" transform="matrix(1,0,0,1,-1.47341,4.96331)">
            <path d="M24.665,21.81C24.421,22.431 23.856,23.306 23.056,23.922C22.594,24.278 22.042,24.618 21.284,24.843C20.476,25.082 19.481,25.163 18.243,25.163L6.92,25.163C5.682,25.163 4.687,25.082 3.879,24.843C3.121,24.618 2.569,24.278 2.107,23.922C1.307,23.306 0.742,22.431 0.498,21.81C0.005,20.558 0,19.138 0,18.243L0,6.92C0,6.025 0.005,4.605 0.498,3.353C0.742,2.732 1.307,1.857 2.107,1.241C2.569,0.885 3.121,0.545 3.879,0.32C4.687,0.081 5.682,0 6.92,0L18.243,0C19.482,0 20.477,0.081 21.284,0.32C22.042,0.545 22.594,0.885 23.056,1.241C23.856,1.857 24.421,2.732 24.665,3.353C25.158,4.605 25.163,6.025 25.163,6.92L25.163,18.243C25.163,19.138 25.158,20.558 24.665,21.81Z" style="fill:none;"/>
        </g>
        <g id="XMLID_1386_" transform="matrix(1,0,0,1,-1.47341,4.96331)">
            <path d="M14.406,14.463C14.029,14.065 13.366,13.81 12.583,13.81C11.8,13.81 11.137,14.065 10.759,14.463C10.562,14.671 10.458,14.884 10.425,15.188C10.361,15.776 10.397,16.282 10.466,17.091C10.532,17.863 10.656,18.891 10.819,19.938C10.934,20.684 11.028,21.086 11.114,21.374C11.253,21.841 11.772,22.249 12.583,22.249C13.394,22.249 13.913,21.841 14.051,21.374C14.137,21.086 14.231,20.684 14.347,19.938C14.509,18.891 14.634,17.863 14.699,17.091C14.768,16.282 14.804,15.776 14.74,15.188C14.708,14.884 14.603,14.671 14.406,14.463ZM10.525,10.916C10.525,12.053 11.447,12.975 12.585,12.975C13.722,12.975 14.644,12.053 14.644,10.916C14.644,9.779 13.722,8.857 12.585,8.857C11.447,8.857 10.525,9.779 10.525,10.916ZM12.559,2.789C7.743,2.803 3.796,6.71 3.737,11.526C3.688,15.427 6.179,18.764 9.656,19.988C9.741,20.017 9.826,19.947 9.813,19.859C9.768,19.556 9.724,19.251 9.685,18.952C9.671,18.846 9.604,18.755 9.506,18.712C6.757,17.511 4.838,14.755 4.869,11.562C4.909,7.371 8.331,3.955 12.521,3.921C16.805,3.887 20.301,7.361 20.301,11.637C20.301,14.798 18.39,17.521 15.663,18.713C15.566,18.755 15.499,18.847 15.485,18.952C15.445,19.251 15.402,19.556 15.357,19.858C15.343,19.947 15.429,20.017 15.513,19.987C18.958,18.776 21.434,15.491 21.434,11.637C21.433,6.75 17.45,2.775 12.559,2.789ZM12.399,6.848C15.13,6.743 17.384,8.933 17.384,11.64C17.384,13.017 16.801,14.26 15.869,15.136C15.79,15.21 15.747,15.315 15.753,15.423C15.772,15.753 15.765,16.073 15.743,16.434C15.737,16.53 15.845,16.592 15.925,16.538C17.488,15.469 18.517,13.673 18.517,11.64C18.517,8.294 15.729,5.586 12.354,5.717C9.218,5.839 6.702,8.425 6.661,11.563C6.635,13.627 7.67,15.456 9.253,16.538C9.333,16.592 9.44,16.53 9.434,16.434C9.412,16.073 9.406,15.753 9.424,15.423C9.43,15.315 9.388,15.21 9.309,15.136C8.348,14.233 7.757,12.94 7.795,11.512C7.861,8.999 9.887,6.946 12.399,6.848Z" style="fill:white;fill-rule:nonzero;"/>
        </g>
    </g>
    <defs>
        <linearGradient id="_Linear1" x1="0" y1="0" x2="1" y2="0" gradientUnits="userSpaceOnUse" gradientTransform="matrix(1.54079e-15,25.163,-25.163,1.54079e-15,12.5815,5.02167e-07)"><stop offset="0" style="stop-color:rgb(244,82,255);stop-opacity:1"/><stop offset="1" style="stop-color:rgb(131,43,193);stop-opacity:1"/></linearGradient>
    </defs>
</svg>
