<?xml version="1.0" encoding="UTF-8" standalone="no"?>
<!DOCTYPE svg PUBLIC "-//W3C//DTD SVG 1.1//EN" "http://www.w3.org/Graphics/SVG/1.1/DTD/svg11.dtd">
<svg width="100%" height="100%" viewBox="0 0 21 33" version="1.1" xmlns="http://www.w3.org/2000/svg" xmlns:xlink="http://www.w3.org/1999/xlink" xml:space="preserve" xmlns:serif="http://www.serif.com/" style="fill-rule:evenodd;clip-rule:evenodd;stroke-linejoin:round;stroke-miterlimit:1.41421;">
    <g transform="matrix(1,0,0,1,-48,-20)">
        <path id="runner" d="M59.475,23.835C59.465,24.028 59.47,24.218 59.49,24.407L58.717,24.774C57.262,25.139 55.985,25.719 54.824,26.441L52.476,27.535C52.281,28.45 52.281,29.387 52.414,30.337L52.373,32.914L52.041,33.941C51.557,34.606 51.402,35.15 51.871,35.462L53.219,35.614L53.521,35.107L53.59,34.563L53.375,34.18L53.264,33.598C53.675,32.028 54.189,30.495 54.089,28.737L54.312,28.486C55.261,28.554 56.18,28.577 56.781,27.886C57.068,28.875 57.403,29.882 58.039,30.73C57.982,31.601 57.846,32.13 57.47,32.442C56.686,33.12 56.284,33.978 56.344,35.055L56.356,36.351C55.42,37.78 54.933,39.212 54.895,40.646L54.309,41.56C53.266,42.437 52.561,43.498 52.185,44.737L49.664,47.449L48.501,47.394C48.266,47.509 48.119,47.642 48.059,47.791L48.072,50.596L48.317,51.191C48.495,51.58 48.702,51.821 48.919,52.016C49.359,52.361 49.591,52.263 49.534,51.547L49.372,51.151L50.322,48.163C52.315,47.085 54.324,45.545 56.346,43.692C56.702,43.389 57.029,43.058 57.316,42.689C58.287,41.304 59.06,39.807 59.491,38.115C61.197,38.531 62.911,38.71 64.639,38.496L64.764,38.68C64.021,39.297 63.272,39.931 62.931,40.66L61.177,42.545C60.669,42.621 60.268,42.813 59.91,43.184C59.727,43.305 59.711,43.508 59.771,43.691L61.011,46.377C61.226,46.784 61.516,47.091 61.871,47.313C62.012,47.42 62.149,47.429 62.285,47.377C62.295,47.2 62.301,47.027 62.303,46.855C62.204,46.775 62.115,46.643 62.041,46.436C62.066,45.707 62.127,44.889 62.218,43.994C62.273,43.664 62.334,43.448 62.648,43.164C64.482,41.862 66.267,40.439 68.06,39.032L68.771,38.431C69.029,38.08 69.012,37.719 68.693,37.347C66.798,35.673 64.393,34.749 61.456,34.605C61.375,34.474 61.341,34.19 61.343,33.786C61.789,32.742 62.189,31.665 62.359,30.422L63.409,31.501C63.749,31.713 63.993,31.635 64.144,31.28C64.954,30.555 65.744,29.817 66.361,28.965C66.798,28.596 67.225,28.217 67.59,27.773C67.665,27.64 67.68,27.416 67.632,27.092C67.266,26.767 66.848,26.529 66.397,26.344L65.681,27.079C65.644,27.542 65.636,27.947 65.658,28.289C65.035,28.738 64.439,29.226 63.896,29.787C63.695,29.465 63.413,28.884 63.037,28.001C62.849,27.137 62.486,26.309 61.603,25.566C61.639,25.198 61.667,24.952 61.902,24.831L62.648,24.773C62.752,24.723 62.779,24.621 62.736,24.469L62.628,24.268L62.884,24.13L62.822,23.793L62.934,23.446C63.097,23.421 63.213,23.344 63.296,23.229L62.807,22.546C62.872,22.141 62.831,21.777 62.701,21.448C62.423,20.975 62.09,20.55 61.377,20.469C60.622,20.285 59.997,20.422 59.367,21.024C58.9,21.471 58.727,21.923 58.906,22.706C58.977,23.094 59.225,23.465 59.475,23.835"/>
    </g>
</svg>
