<?xml version="1.0" encoding="UTF-8" standalone="no"?>
<!DOCTYPE svg PUBLIC "-//W3C//DTD SVG 1.1//EN" "http://www.w3.org/Graphics/SVG/1.1/DTD/svg11.dtd">
<svg width="100%" height="100%" viewBox="0 0 134 34" version="1.1" xmlns="http://www.w3.org/2000/svg" xmlns:xlink="http://www.w3.org/1999/xlink" xml:space="preserve" xmlns:serif="http://www.serif.com/" style="fill-rule:evenodd;clip-rule:evenodd;">
    <g id="RSSPodcast">
        <g id="Rectangle" transform="matrix(1,0,0,1,-0.22066,0)">
            <path d="M133.75,8.25C133.75,3.835 130.165,0.25 125.75,0.25L8.25,0.25C3.835,0.25 0.25,3.835 0.25,8.25L0.25,25.75C0.25,30.165 3.835,33.75 8.25,33.75L125.75,33.75C130.165,33.75 133.75,30.165 133.75,25.75L133.75,8.25Z" style="fill:white;stroke:rgb(154,160,166);stroke-width:0.5px;"/>
        </g>
        <g transform="matrix(1,0,0,1,-2.23036,-1.37954)">
            <text x="35.973px" y="26.875px" style="font-family:'Arial-BoldMT', 'Arial', sans-serif;font-weight:700;font-size:12px;fill:rgb(30,215,96);">Spotify</text>
            <text x="79.971px" y="26.875px" style="font-family:'ArialMT', 'Arial', sans-serif;font-size:12px;fill:rgb(30,215,96);">Podcast</text>
        </g>
        <g transform="matrix(1,0,0,1,-1.17836,-0.198493)">
            <text x="35.617px" y="12.799px" style="font-family:'ArialMT', 'Arial', sans-serif;font-size:8.895px;fill:rgb(48,48,48);">Listen on</text>
        </g>
        <path d="M17.388,4.136C24.676,4.136 30.594,10.054 30.594,17.342C30.594,24.631 24.676,30.548 17.388,30.548C10.099,30.548 4.182,24.631 4.182,17.342C4.182,10.054 10.099,4.136 17.388,4.136ZM10.311,20.669C9.349,21.139 9.574,22.14 10.719,22.273C15.039,21.183 18.953,21.577 22.433,23.551C23.55,23.809 24.077,22.853 23.319,22.139C20.138,19.147 11.417,20.129 10.311,20.669ZM9.772,16.613C8.636,17.224 9.153,18.773 10.343,18.486C15.472,17.25 19.97,17.802 23.848,20.107C25.29,20.372 25.871,19.145 24.946,18.288C21.062,14.686 10.611,15.823 9.772,16.613ZM8.956,12.073C7.746,13.06 8.083,14.4 9.736,14.41C9.876,14.373 10.015,14.337 10.154,14.303C15.423,13 20.475,13.548 25.31,15.947C26.993,16.415 27.716,14.787 26.686,13.825C20.866,10.848 15.009,10.359 8.956,12.073Z" style="fill:rgb(30,215,96);"/>
    </g>
</svg>
